Coordinates
version=1
nRows=12
nColumns=24
inDegrees=yes

Units are S.I. units (second, meters, Newtons, ...)
Angles are in degrees.

endheader
time	pelvis_tilt	pelvis_list	pelvis_rotation	pelvis_tx	pelvis_ty	pelvis_tz	hip_flexion_r	hip_adduction_r	hip_rotation_r	knee_angle_r	ankle_angle_r	subtalar_angle_r	mtp_angle_r	hip_flexion_l	hip_adduction_l	hip_rotation_l	knee_angle_l	ankle_angle_l	subtalar_angle_l	mtp_angle_l	lumbar_extension	lumbar_bending	lumbar_rotation
      4.27000000	    -11.19327652	      4.74847826	     -3.63926503	     -0.83022638	     -0.01934611	     -0.69789615	     16.97796803	     -6.08965430	     -2.55018393	    -60.50811390	    -18.96833243	    -15.43189450	      3.06073188	     27.84820196	      6.10356822	    -12.33376522	    -22.71722705	      1.60140792	     -9.84636625	      4.68472808	      7.84329581	     -5.23844821	      0.80387099
      4.27500000	    -11.14256740	      4.71780558	     -3.52054334	     -0.82436363	     -0.01841798	     -0.69858079	     17.81857770	     -6.08662764	     -2.62365770	    -61.51554521	    -18.44424831	    -15.83842739	      2.95568353	     27.21345654	      6.24424967	    -12.19009212	    -22.38323479	      1.84377806	     -9.74984356	      4.75796455	      7.75717078	     -5.21102333	      0.53989485
      4.28000000	    -11.27914376	      4.62045834	     -3.42253029	     -0.81863761	     -0.01768157	     -0.69913905	     18.89079220	     -5.94710841	     -2.65902134	    -62.52511652	    -17.69539927	    -16.08803811	      1.73471379	     26.80762169	      6.27827747	    -12.01514215	    -22.09419558	      2.07993184	     -9.66684358	      4.78083250	      7.85930266	     -5.10554510	      0.31594583
      4.28500000	    -11.23482167	      4.53665958	     -3.33128950	     -0.81295106	     -0.01673869	     -0.69977569	     19.73002061	     -5.86711986	     -2.72049303	    -63.35280122	    -17.18886203	    -16.46148906	      1.79277729	     26.18554081	      6.34950137	    -11.83907532	    -21.76041366	      2.28877419	     -9.59752098	      4.81771404	      7.75264658	     -5.01361006	      0.14283765
      4.29000000	    -11.27822465	      4.46471290	     -3.22122231	     -0.80721424	     -0.01590552	     -0.70044489	     20.65704058	     -5.80562945	     -2.80297475	    -64.11487941	    -16.66987357	    -16.76943872	      1.79481064	     25.64818153	      6.43485737	    -11.65427115	    -21.40655701	      2.49011185	     -9.53024461	      4.83447923	      7.75844552	     -4.92633064	     -0.05841513
      4.29500000	    -11.45910845	      4.36728960	     -3.08832658	     -0.80162326	     -0.01526265	     -0.70113609	     21.74383566	     -5.70244290	     -2.87771621	    -64.83837236	    -16.06042482	    -16.92029253	      1.64827634	     25.29709637	      6.48650539	    -11.48388270	    -21.09787649	      2.65577256	     -9.54889333	      4.76160152	      7.89041142	     -4.80772524	     -0.30981167
      4.30000000	    -11.47088543	      4.27362130	     -2.99843671	     -0.79591683	     -0.01439998	     -0.70178756	     22.60854214	     -5.61048153	     -2.94852824	    -65.42113103	    -15.54576641	    -17.10508580	      1.64789998	     24.70490867	      6.54436020	    -11.30105330	    -20.70491807	      2.86958660	     -9.49306905	      4.74114661	      7.86246921	     -4.68935337	     -0.46027367
      4.30500000	    -11.48019733	      4.17438219	     -2.91332633	     -0.79025373	     -0.01351435	     -0.70235870	     23.44952082	     -5.48798790	     -2.99305583	    -65.90482909	    -15.02300378	    -17.28064195	      1.71543599	     24.10590523	      6.58382482	    -11.11799839	    -20.29981852	      3.03203517	     -9.41261243	      4.73201918	      7.82828564	     -4.57443500	     -0.61988980
      4.31000000	    -11.56415389	      4.09925161	     -2.78444296	     -0.78461389	     -0.01279209	     -0.70305078	     24.36762560	     -5.42311436	     -3.06590017	    -66.34721906	    -14.40249718	    -17.25106610	      1.81307582	     23.60401577	      6.66366461	    -10.95885985	    -19.90765981	      3.18390115	     -9.39869547	      4.64401923	      7.87215014	     -4.47672411	     -0.84663308
      4.31500000	    -11.55595139	      3.98964039	     -2.71401268	     -0.77892660	     -0.01191813	     -0.70359498	     25.15356135	     -5.28020282	     -3.11148567	    -66.65082955	    -13.94830974	    -17.44414068	      1.90698870	     22.96686568	      6.68219093	    -10.84066086	    -19.46302014	      3.35792436	     -9.34411718	      4.64750280	      7.82476593	     -4.34487130	     -0.98610806
      4.32000000	    -11.56743813	      3.93064411	     -2.60478787	     -0.77322864	     -0.01110952	     -0.70420530	     25.94918874	     -5.22763184	     -3.18757061	    -66.89906037	    -13.41406768	    -17.48009081	      2.07789216	     22.34194293	      6.76859481	    -10.63739989	    -19.00392641	      3.50335978	     -9.21422318	      4.63399878	      7.80990016	     -4.26556745	     -1.12323619
      4.32500000	    -11.56934405	      3.86679272	     -2.46363229	     -0.76753432	     -0.01035330	     -0.70493749	     26.70487379	     -5.19380356	     -3.26751765	    -67.06600362	    -12.81525250	    -17.35361600	      2.38819373	     21.71099029	      6.86777686	    -10.48502892	    -18.54051446	      3.66876622	     -9.16175108	      4.57500734	      7.77521593	     -4.17840675	     -1.32905095
